<svg width="20" height="24" viewBox="0 0 20 24" fill="none" xmlns="http://www.w3.org/2000/svg">
<path d="M5.52002 10.0096C4.67602 8.97197 3.88369 8.74913 3.14302 9.34113C2.03152 10.2291 1.71252 13.3251 2.60652 16.0551C3.50052 18.7851 5.24002 22.5016 8.75102 22.5016C12.262 22.5016 13.092 18.7611 14.524 16.5001C15.9565 14.2391 16.714 12.0576 15.3105 9.34113" stroke="black" stroke-width="2" stroke-linecap="round" stroke-linejoin="round"/>
<path d="M3.75001 9.0186C3.08901 8.00868 2.42234 7.0025 1.75001 6.0001C1.02701 4.9276 2.87551 3.5411 3.75001 4.4841C4.33301 5.1131 5.10751 6.03926 6.07351 7.2626" stroke="black" stroke-width="2" stroke-linecap="round"/>
<path d="M5.762 12.82C5.51966 9.78796 5.71666 7.8138 6.35299 6.89746C7.30799 5.52246 9.0815 5.00146 10.752 5.00146C11.7463 5.00146 12.6543 5.42496 13.476 6.27196" stroke="black" stroke-width="2" stroke-linecap="round" stroke-linejoin="round"/>
<path d="M18.75 6.30642C19.043 7.32442 18.565 8.25492 17.092 8.46542C15.619 8.67592 14.5155 9.41642 13.7195 10.0394C12.9235 10.6624 11.4995 12.5524 11.218 13.5009C10.9365 14.4494 9.33002 13.5774 8.89852 13.1984C8.46702 12.8199 8.04252 11.9904 8.89852 11.1229C9.75452 10.2554 9.56902 10.0824 9.56902 9.20292C9.56902 8.32292 14.25 5.41292 16.8865 5.14692C17.4725 5.11292 18.4575 5.28792 18.75 6.30642Z" stroke="black" stroke-width="2"/>
<path d="M9.75401 1.99996V4.63146M8.40351 5.35896C6.89451 3.46229 5.67784 2.40396 4.75351 2.18396M6.75201 3.51446L7.24701 1.48096M16.0565 5.35896C15.8955 5.91096 15.8955 6.42862 16.0565 6.91196C16.2178 7.39529 16.563 7.91312 17.092 8.46546" stroke="black" stroke-width="2" stroke-linecap="round"/>
</svg>
